# xmcd
#
# Track frame offsets: 
#        150
#        19948
#        30849
#        40793
#        72090
#        103352
#        123153
#        135737
#        151073
#        166824
#
# Disc length: 2552 seconds
#
# Revision: 0
# Processed by: cddbd v1.5.2PL0 Copyright (c) Steve Scherf et al.
# Submitted via: ExactAudioCopy v0.99pb4
#
DISCID=7409f60a
DTITLE=Various Artist - Nova 24h - CD 04 - Nova, c'est 3h !
DYEAR=2009
DGENRE=
TTITLE0=The John Betsch Society - Ode To Ethiopia
TTITLE1=Brazilian Girls - L'Interprète
TTITLE2=The Gaslamp Killer feat. Gonjasufi - Kobwebs
TTITLE3=Inez and Charlie Foxx - Fellows In Vietnam
TTITLE4=Gang Gang Dance - House Jam (Hot Chip Remix)
TTITLE5=Ramiro Musotto - M'Bala
TTITLE6=Blu Jemz - Almost There
TTITLE7=Frankie Paul - Worries In The Dance
TTITLE8=Tèwèldè Rèdda - Ab Teqay Qerèbi
TTITLE9=OutKast - Prototype
EXTD=
EXTT0=
EXTT1=
EXTT2=
EXTT3=
EXTT4=
EXTT5=
EXTT6=
EXTT7=
EXTT8=
EXTT9=
PLAYORDER=
